<svg width="1217" height="529" viewBox="0 0 1217 529" fill="none" xmlns="http://www.w3.org/2000/svg">
<line x1="135.179" y1="458.134" x2="2.98439" y2="338.204" stroke="#48CAE4" stroke-width="6"/>
<line x1="154.302" y1="432.857" x2="45.8945" y2="334.508" stroke="#F26419" stroke-width="2"/>
<line x1="169.021" y1="414.715" x2="80.3013" y2="334.227" stroke="#C200FB"/>
<path d="M332.821 459.133L465.016 339.204" stroke="#48CAE4" stroke-width="6"/>
<line y1="-1" x2="146.372" y2="-1" transform="matrix(0.740631 -0.671912 -0.671912 -0.740631 317.026 432.116)" stroke="#F26419" stroke-width="2"/>
<line y1="-0.5" x2="119.79" y2="-0.5" transform="matrix(0.740631 -0.671912 -0.671912 -0.740631 301.98 414.345)" stroke="#C200FB"/>
<line x1="2.52163" y1="340.973" x2="233.522" y2="2.30949" stroke="#48CAE4" stroke-width="6"/>
<line x1="45.7403" y1="333.763" x2="235.174" y2="56.0383" stroke="#F26419" stroke-width="2"/>
<line x1="80.2241" y1="334.033" x2="235.255" y2="106.745" stroke="#C200FB"/>
<path d="M462.478 340.973L231.478 2.30929" stroke="#48CAE4" stroke-width="6"/>
<line y1="-1" x2="336.178" y2="-1" transform="matrix(-0.563492 -0.826122 -0.826122 0.563492 425.434 334.326)" stroke="#F26419" stroke-width="2"/>
<line y1="-0.5" x2="275.126" y2="-0.5" transform="matrix(-0.563492 -0.826122 -0.826122 0.563492 390.7 334.314)" stroke="#C200FB"/>
<path d="M488.89 456V280.5C488.89 273.1 490.69 266.3 494.29 260.1C497.89 253.9 502.79 249 508.99 245.4C515.19 241.8 521.99 240 529.39 240H664.39C671.79 240 678.49 241.8 684.49 245.4C690.69 249 695.59 253.9 699.19 260.1C702.99 266.3 704.89 273.1 704.89 280.5V456H668.59V381.9H524.89V456H488.89ZM524.89 345.9H668.59V281.7C668.59 280.1 667.99 278.8 666.79 277.8C665.79 276.8 664.59 276.3 663.19 276.3H530.29C528.89 276.3 527.59 276.8 526.39 277.8C525.39 278.8 524.89 280.1 524.89 281.7V345.9ZM736.071 456V447.9L802.071 367.5L736.071 290.1V282H776.271L825.471 339.9L874.371 282H914.571V290.1L848.571 367.5L914.871 447.9V456H874.671L825.471 395.7L776.271 456H736.071ZM974.939 456C967.539 456 960.839 454.2 954.839 450.6C948.839 446.8 943.939 441.9 940.139 435.9C936.539 429.9 934.739 423.2 934.739 415.8V322.2C934.739 314.8 936.539 308.1 940.139 302.1C943.939 296.1 948.839 291.3 954.839 287.7C960.839 283.9 967.539 282 974.939 282H1071.24C1078.84 282 1085.64 283.9 1091.64 287.7C1097.64 291.3 1102.44 296.1 1106.04 302.1C1109.64 308.1 1111.44 314.8 1111.44 322.2V387H970.439V414.6C970.439 416.2 970.939 417.6 971.939 418.8C973.139 419.8 974.539 420.3 976.139 420.3H1111.44V456H974.939ZM970.439 354.3H1075.74V323.4C1075.74 321.8 1075.14 320.5 1073.94 319.5C1072.94 318.3 1071.64 317.7 1070.04 317.7H976.139C974.539 317.7 973.139 318.3 971.939 319.5C970.939 320.5 970.439 321.8 970.439 323.4V354.3ZM1176.22 456C1168.82 456 1162.12 454.2 1156.12 450.6C1150.12 446.8 1145.22 441.9 1141.42 435.9C1137.82 429.9 1136.02 423.2 1136.02 415.8V224.7H1172.02V414.6C1172.02 416.2 1172.52 417.6 1173.52 418.8C1174.72 419.8 1176.02 420.3 1177.42 420.3H1209.82V456H1176.22Z" fill="black"/>
</svg>
